Coordinates
version=1
nRows=16
nColumns=36
inDegrees=yes

Units are S.I. units (second, meters, Newtons, ...)
Angles are in degrees.

endheader
time	pelvis_tilt	pelvis_list	pelvis_rotation	pelvis_tx	pelvis_ty	pelvis_tz	hip_flexion_r	hip_adduction_r	hip_rotation_r	knee_angle_r	ankle_angle_r	subtalar_angle_r	hip_flexion_l	hip_adduction_l	hip_rotation_l	knee_angle_l	ankle_angle_l	subtalar_angle_l	lumbar_extension	lumbar_bending	lumbar_rotation	arm_flex_r	arm_add_r	arm_rot_r	elbow_flex_r	pro_sup_r	wrist_flex_r	wrist_dev_r	arm_flex_l	arm_add_l	arm_rot_l	elbow_flex_l	pro_sup_l	wrist_flex_l	wrist_dev_l
      2.05000000	      1.67094318	     -1.98485359	      4.61146713	      0.68743393	      0.91897894	      0.26263167	     -9.81318137	      7.85634884	     -7.03887935	    -10.61687239	     12.28089166	      1.92685916	     26.32997126	      1.24107726	      4.00355387	    -27.12586419	      4.09424350	     -7.84569234	     -8.11708952	      4.26805079	      1.56204943	     -1.96920621	    -23.31565835	      2.70163736	     50.11164036	     86.51662706	      0.00000000	      0.00000000	     -3.29509625	    -14.67975285	     23.85024347	     16.41005777	     86.51662706	      0.00000000	      0.00000000
      2.06000000	      1.73015283	     -2.06101119	      4.32670746	      0.70070265	      0.91699871	      0.26286802	    -10.90231299	      7.93573057	     -7.00659495	    -10.45334950	     12.69658598	      2.42190710	     26.38391876	      1.08083885	      3.77962608	    -23.80323729	      4.34878683	     -7.62756028	     -8.22762354	      4.31846766	      1.90316488	     -1.57817642	    -23.60961345	      2.62051862	     50.89730441	     86.51662706	      0.00000000	      0.00000000	     -3.54840308	    -14.50829532	     23.82416927	     15.79931631	     86.51662706	      0.00000000	      0.00000000
      2.07000000	      1.75503814	     -2.17289428	      4.03226433	      0.71409300	      0.91496358	      0.26299239	    -11.90278058	      8.02315193	     -6.89854849	    -10.40835453	     13.06009598	      2.84479833	     26.45508503	      0.88284640	      3.48159816	    -20.71425991	      4.63236256	     -7.06295997	     -8.28740155	      4.40661404	      2.23264786	     -1.19933640	    -23.88809386	      2.57395207	     51.56165291	     86.51662706	      0.00000000	      0.00000000	     -3.77683701	    -14.30497135	     23.87605192	     15.11714619	     86.51662706	      0.00000000	      0.00000000
      2.08000000	      1.74422705	     -2.31294813	      3.73265179	      0.72759833	      0.91288596	      0.26302966	    -12.80844853	      8.11267073	     -6.72521605	    -10.49003509	     13.36416938	      3.21040898	     26.56279471	      0.66798280	      3.09484753	    -17.95181598	      4.93240451	     -6.14154447	     -8.29479949	      4.52496534	      2.54858770	     -0.84510701	    -24.14842191	      2.55561668	     52.10985551	     86.51662706	      0.00000000	      0.00000000	     -3.97458254	    -14.07322654	     24.01752706	     14.36534634	     86.51662706	      0.00000000	      0.00000000
      2.09000000	      1.69928914	     -2.46723917	      3.43092957	      0.74120921	      0.91076643	      0.26301304	    -13.61380029	      8.19196356	     -6.50809636	    -10.71045841	     13.60667296	      3.54187288	     26.71830907	      0.46163224	      2.62750716	    -15.60291144	      5.23385338	     -4.88674507	     -8.25108282	      4.65787384	      2.84970265	     -0.52870343	    -24.38681684	      2.55887488	     52.54793723	     86.51662706	      0.00000000	      0.00000000	     -4.13797371	    -13.81824045	     24.25992396	     13.54840825	     86.51662706	      0.00000000	      0.00000000
      2.10000000	      1.62519136	     -2.61637439	      3.12750823	      0.75493815	      0.90863654	      0.26293264	    -14.31581333	      8.24101447	     -6.27464374	    -11.08350160	     13.79063258	      3.86675711	     26.92264682	      0.28953408	      2.11390129	    -13.74028365	      5.51411338	     -3.36001677	     -8.15868132	      4.78301951	      3.13563568	     -0.26348327	    -24.59836602	      2.57731330	     52.88199834	     86.51662706	      0.00000000	      0.00000000	     -4.26713238	    -13.54662486	     24.61330101	     12.67367903	     86.51662706	      0.00000000	      0.00000000
      2.11000000	      1.53000513	     -2.73772730	      2.82067992	      0.76882652	      0.90655485	      0.26276522	    -14.91519515	      8.23419478	     -6.05226980	    -11.62098326	     13.92310224	      4.21227793	     27.16590037	      0.17545999	      1.61021394	    -12.41388563	      5.73729673	     -1.65988368	     -8.01963435	      4.87478142	      3.40623159	     -0.06198160	    -24.77725148	      2.60515985	     53.11733906	     86.51662706	      0.00000000	      0.00000000	     -4.36684668	    -13.26603448	     25.08532150	     11.75138063	     86.51662706	      0.00000000	      0.00000000
      2.12000000	      1.42271643	     -2.80870098	      2.50917524	      0.78292664	      0.90458854	      0.26252236	    -15.41591531	      8.14550252	     -5.86312284	    -12.32865318	     14.01248654	      4.60019399	     27.42795655	      0.14064727	      1.18266689	    -11.64408824	      5.85105292	      0.08483706	     -7.83475122	      4.90845468	      3.65980100	      0.06544956	    -24.91718002	      2.63747200	     53.25759672	     86.51662706	      0.00000000	      0.00000000	     -4.44618074	    -12.98477835	     25.68007350	     10.79444138	     86.51662706	      0.00000000	      0.00000000
      2.13000000	      1.30972420	     -2.81056360	      2.19549838	      0.79728378	      0.90279126	      0.26224193	    -15.82355652	      7.95500611	     -5.72101331	    -13.20425307	     14.06401445	      5.04225320	     27.68179585	      0.20418239	      0.89174002	    -11.41840890	      5.78901008	      1.72728142	     -7.60387196	      4.86398627	      3.89082213	      0.11223210	    -25.01182968	      2.67007771	     53.30401090	     86.51662706	      0.00000000	      0.00000000	     -4.51667936	    -12.71142987	     26.39696702	      9.81812594	     86.51662706	      0.00000000	      0.00000000
      2.14000000	      1.19249360	     -2.73193353	      1.88840840	      0.81192394	      0.90116858	      0.26194487	    -16.14372017	      7.65356175	     -5.63110233	    -14.23910983	     14.07350755	      5.53714123	     27.90063541	      0.38336626	      0.77775930	    -11.69304069	      5.48054212	      3.11881435	     -7.32724169	      4.72791029	      4.08799606	      0.07696460	    -25.05507696	      2.69936158	     53.25494090	     86.51662706	      0.00000000	      0.00000000	     -4.58954268	    -12.45442062	     27.22984859	      8.83950923	     86.51662706	      0.00000000	      0.00000000
      2.15000000	      1.06887494	     -2.56997574	      1.60361799	      0.82684192	      0.89965269	      0.26162844	    -16.38106711	      7.24360239	     -5.59197694	    -15.42307578	     14.02034028	      6.06970630	     28.06824472	      0.69277830	      0.85273776	    -12.39948193	      4.86732012	      4.12699835	     -7.00761961	      4.49275887	      4.23378237	     -0.03587863	    -25.04093738	      2.72205433	     53.10577266	     86.51662706	      0.00000000	      0.00000000	     -4.67252771	    -12.22163361	     28.16643850	      7.87688503	     86.51662706	      0.00000000	      0.00000000
      2.16000000	      0.93846442	     -2.32727498	      1.36236975	      0.84201065	      0.89812280	      0.26129165	    -16.53820584	      6.73588310	     -5.59890644	    -16.75087168	     13.86140161	      6.61276654	     28.18845845	      1.14099797	      1.10096295	    -13.45538028	      3.92327037	      4.65261859	     -6.65241630	      4.15448475	      4.30628315	     -0.21637557	    -24.96341607	      2.73518418	     52.84934408	     86.51662706	      0.00000000	      0.00000000	     -4.76753287	    -12.02002470	     29.18815725	      6.94917499	     86.51662706	      0.00000000	      0.00000000
      2.17000000	      0.80824450	     -2.00509811	      1.18784435	      0.85740088	      0.89649836	      0.26092499	    -16.61320286	      6.14399935	     -5.64683261	    -18.22695585	     13.52859195	      7.13109570	     28.28671720	      1.72592786	      1.48737541	    -14.77761485	      2.67183205	      4.64348613	     -6.27475747	      3.70958372	      4.28367888	     -0.45085646	    -24.81663578	      2.73630642	     52.47695664	     86.51662706	      0.00000000	      0.00000000	     -4.86976446	    -11.85532355	     30.27038728	      6.07534985	     86.51662706	      0.00000000	      0.00000000
      2.18000000	      0.69183354	     -1.59824028	      1.09958226	      0.87296010	      0.89487105	      0.26047872	    -16.59627187	      5.47935575	     -5.73210044	    -19.86678134	     12.93242848	      7.58642485	     28.39761350	      2.43242508	      1.96970320	    -16.29416773	      1.19305509	      4.10333270	     -5.89239026	      3.15397534	      4.15056383	     -0.72458777	    -24.59558475	      2.72405651	     51.97990989	     86.51662706	      0.00000000	      0.00000000	     -4.96895596	    -11.73188821	     31.38319910	      5.27384315	     86.51662706	      0.00000000	      0.00000000
      2.19000000	      0.60046688	     -1.09727046	      1.10670140	      0.88857008	      0.89352289	      0.25990297	    -16.46827305	      4.74868043	     -5.85249252	    -21.69408190	     11.97338790	      7.94179959	     28.54182943	      3.23557876	      2.50907722	    -17.94929821	     -0.38494535	      3.09442967	     -5.52434774	      2.48489583	      3.90462015	     -1.02469442	    -24.29757390	      2.69897143	     51.35131235	     86.51662706	      0.00000000	      0.00000000	     -5.05236645	    -11.65269496	     32.49254905	      4.56194642	     86.51662706	      0.00000000	      0.00000000
      2.20000000	      0.53483818	     -0.49755459	      1.20204175	      0.90407540	      0.89273946	      0.25922774	    -16.20335212	      3.95444319	     -6.00523597	    -23.73522844	     10.56074922	      8.16372722	     28.70867551	      4.10800892	      3.07514212	    -19.69666019	     -1.90905949	      1.73253374	     -5.18665781	      1.70521608	      3.56132464	     -1.34230907	    -23.92407812	      2.66441763	     50.58775803	     86.51662706	      0.00000000	      0.00000000	     -5.10844726	    -11.61931854	     33.56192233	      3.95522141	     86.51662706	      0.00000000	      0.00000000
